<svg width="1616" height="326" viewBox="0 0 1616 326" fill="none" xmlns="http://www.w3.org/2000/svg">
<path d="M583.51 220.722C589.508 226.721 595.506 231.091 601.504 233.833C607.674 236.404 614.272 237.689 621.299 237.689C625.926 237.689 630.639 237.003 635.437 235.632C640.236 234.09 644.521 231.862 648.291 228.949C652.233 225.864 655.403 222.179 657.802 217.895C660.373 213.439 661.658 208.297 661.658 202.471C661.658 196.13 660.373 190.902 657.802 186.789C655.403 182.505 652.147 178.992 648.034 176.25C643.921 173.336 639.208 170.937 633.895 169.052C628.582 167.166 623.012 165.281 617.186 163.396C611.187 161.511 605.275 159.369 599.448 156.969C593.621 154.57 588.394 151.485 583.767 147.715C579.139 143.773 575.369 138.975 572.456 133.319C569.714 127.664 568.342 120.723 568.342 112.496C568.342 103.756 570.056 96.2154 573.484 89.8744C577.083 83.5333 581.71 78.3063 587.366 74.1932C593.021 70.0801 599.276 67.0809 606.132 65.1958C612.987 63.3106 619.756 62.368 626.44 62.368C636.209 62.368 644.949 63.8247 652.661 66.7382C660.545 69.6516 666.886 73.5077 671.684 78.3063C673.055 79.6773 673.912 80.9627 674.255 82.1623C674.598 83.1906 674.769 84.2189 674.769 85.2471C674.769 87.6464 673.912 89.703 672.198 91.4168C670.656 92.9592 668.599 93.7304 666.029 93.7304C665.172 93.7304 664.058 93.559 662.687 93.2163C661.487 92.8735 659.859 91.7595 657.802 89.8744C653.347 85.9327 648.634 83.0192 643.664 81.134C638.694 79.0775 632.695 78.0492 625.669 78.0492C621.213 78.0492 616.671 78.7347 612.044 80.1058C607.417 81.4768 603.218 83.619 599.448 86.5325C595.677 89.2745 592.593 92.7878 590.193 97.0723C587.965 101.357 586.851 106.412 586.851 112.239C586.851 118.066 587.965 122.865 590.193 126.635C592.421 130.406 595.335 133.662 598.934 136.404C602.704 138.975 606.903 141.117 611.53 142.831C616.329 144.544 621.299 146.258 626.44 147.972C632.781 150.028 639.122 152.256 645.463 154.656C651.976 157.055 657.802 160.226 662.944 164.167C668.085 167.938 672.284 172.822 675.54 178.82C678.796 184.647 680.425 192.102 680.425 201.185C680.425 210.268 678.625 218.152 675.026 224.836C671.598 231.348 667.057 236.746 661.401 241.031C655.917 245.315 649.576 248.486 642.378 250.542C635.352 252.599 628.24 253.627 621.042 253.627C611.616 253.627 602.618 252.085 594.049 249C585.48 245.915 577.854 241.117 571.17 234.604C569.628 233.062 568.6 231.605 568.085 230.234C567.571 228.863 567.314 227.578 567.314 226.378C567.314 223.979 568.085 221.922 569.628 220.208C571.342 218.323 573.57 217.381 576.312 217.381C577.34 217.381 578.454 217.638 579.654 218.152C580.853 218.494 582.139 219.351 583.51 220.722ZM787.225 188.846C780.027 188.846 772.743 189.189 765.374 189.874C758.176 190.388 751.578 191.588 745.579 193.473C739.753 195.187 734.954 197.758 731.184 201.185C727.413 204.613 725.528 209.154 725.528 214.81C725.528 219.094 726.299 222.693 727.842 225.607C729.555 228.52 731.783 230.919 734.525 232.805C737.268 234.518 740.267 235.804 743.523 236.661C746.95 237.346 750.378 237.689 753.806 237.689C759.975 237.689 765.459 236.661 770.258 234.604C775.057 232.376 779.084 229.463 782.34 225.864C785.596 222.093 788.081 217.809 789.795 213.01C791.509 208.212 792.366 203.156 792.366 197.843V188.846H787.225ZM808.818 222.008C808.818 225.435 808.818 228.349 808.818 230.748C808.99 232.976 809.247 235.29 809.59 237.689C809.761 238.717 809.847 239.66 809.847 240.517C810.018 241.374 810.104 242.059 810.104 242.573C810.104 245.315 809.332 247.372 807.79 248.743C806.248 250.114 804.448 250.799 802.392 250.799C801.021 250.799 799.392 250.285 797.507 249.257C795.794 248.229 794.68 245.829 794.165 242.059C793.651 237.946 793.394 233.747 793.394 229.463H792.88C787.396 237.518 781.141 243.344 774.114 246.943C767.259 250.371 758.947 252.085 749.178 252.085C744.551 252.085 739.753 251.399 734.783 250.028C729.984 248.829 725.528 246.772 721.415 243.859C717.473 240.945 714.131 237.175 711.389 232.548C708.819 227.92 707.533 222.265 707.533 215.581C707.533 206.327 709.847 199.043 714.474 193.73C719.273 188.246 725.614 184.219 733.497 181.648C741.381 178.906 750.378 177.192 760.489 176.507C770.772 175.65 781.398 175.221 792.366 175.221V171.365C792.366 160.911 789.624 153.113 784.14 147.972C778.656 142.831 770.686 140.26 760.232 140.26C749.093 140.26 738.81 143.602 729.384 150.286C726.985 151.828 724.928 152.599 723.214 152.599C721.329 152.599 719.701 151.999 718.33 150.8C716.959 149.429 716.274 147.629 716.274 145.401C716.274 143.173 717.388 141.031 719.615 138.975C724.071 135.033 729.984 131.862 737.353 129.463C744.723 126.892 752.949 125.607 762.032 125.607C768.544 125.607 774.628 126.55 780.284 128.435C785.939 130.148 790.909 132.805 795.194 136.404C799.478 140.003 802.82 144.544 805.219 150.028C807.619 155.513 808.818 161.939 808.818 169.309V222.008ZM958.479 188.846C958.479 182.162 957.45 175.907 955.394 170.08C953.337 164.082 950.338 158.94 946.396 154.656C942.626 150.2 937.913 146.687 932.258 144.116C926.602 141.545 920.175 140.26 912.977 140.26C906.294 140.26 900.124 141.545 894.468 144.116C888.813 146.515 883.929 149.943 879.816 154.399C875.702 158.683 872.446 163.825 870.047 169.823C867.819 175.65 866.705 181.991 866.705 188.846C866.705 195.701 867.819 202.128 870.047 208.126C872.446 213.953 875.702 219.009 879.816 223.293C883.929 227.578 888.813 231.005 894.468 233.576C900.124 235.975 906.294 237.175 912.977 237.175C920.175 237.175 926.602 235.975 932.258 233.576C937.913 231.005 942.626 227.578 946.396 223.293C950.338 218.837 953.337 213.696 955.394 207.869C957.45 201.871 958.479 195.53 958.479 188.846ZM976.988 188.846C976.988 197.758 975.445 206.069 972.36 213.782C969.447 221.494 965.248 228.177 959.764 233.833C954.451 239.488 947.939 243.944 940.227 247.201C932.686 250.457 924.203 252.085 914.777 252.085C906.208 252.085 897.725 250.114 889.327 246.172C881.101 242.059 874.503 236.232 869.533 228.692H868.762V302.984C868.762 305.041 868.419 306.669 867.733 307.869C867.048 309.24 866.277 310.182 865.42 310.697C864.563 311.382 863.62 311.81 862.592 311.982C861.564 312.325 860.707 312.496 860.021 312.496C859.336 312.496 858.479 312.325 857.451 311.982C856.422 311.81 855.48 311.382 854.623 310.697C853.766 310.182 852.995 309.24 852.309 307.869C851.624 306.669 851.281 305.041 851.281 302.984V136.404C851.281 134.347 851.624 132.719 852.309 131.52C852.995 130.148 853.766 129.206 854.623 128.692C855.48 128.006 856.422 127.578 857.451 127.406C858.479 127.064 859.336 126.892 860.021 126.892C860.707 126.892 861.564 127.064 862.592 127.406C863.62 127.578 864.563 128.006 865.42 128.692C866.277 129.206 867.048 130.148 867.733 131.52C868.419 132.719 868.762 134.347 868.762 136.404V149.514H869.533C874.503 141.631 881.101 135.718 889.327 131.777C897.725 127.663 906.208 125.607 914.777 125.607C924.203 125.607 932.686 127.235 940.227 130.491C947.939 133.747 954.451 138.203 959.764 143.859C965.248 149.514 969.447 156.198 972.36 163.91C975.445 171.622 976.988 179.934 976.988 188.846ZM1033.23 82.4194C1033.23 86.0183 1031.94 89.0175 1029.37 91.4168C1026.8 93.6447 1023.97 94.7587 1020.89 94.7587C1017.8 94.7587 1014.97 93.6447 1012.4 91.4168C1009.83 89.0175 1008.55 86.0183 1008.55 82.4194C1008.55 78.8204 1009.83 75.907 1012.4 73.679C1014.97 71.2797 1017.8 70.0801 1020.89 70.0801C1023.97 70.0801 1026.8 71.2797 1029.37 73.679C1031.94 75.907 1033.23 78.8204 1033.23 82.4194ZM1029.63 241.288C1029.63 243.344 1029.28 245.058 1028.6 246.429C1027.91 247.629 1027.14 248.486 1026.28 249C1025.43 249.686 1024.49 250.114 1023.46 250.285C1022.43 250.628 1021.57 250.799 1020.89 250.799C1020.2 250.799 1019.34 250.628 1018.32 250.285C1017.29 250.114 1016.34 249.686 1015.49 249C1014.63 248.486 1013.86 247.629 1013.17 246.429C1012.49 245.058 1012.15 243.344 1012.15 241.288V136.404C1012.15 134.347 1012.49 132.719 1013.17 131.52C1013.86 130.148 1014.63 129.206 1015.49 128.692C1016.34 128.006 1017.29 127.578 1018.32 127.406C1019.34 127.064 1020.2 126.892 1020.89 126.892C1021.57 126.892 1022.43 127.064 1023.46 127.406C1024.49 127.578 1025.43 128.006 1026.28 128.692C1027.14 129.206 1027.91 130.148 1028.6 131.52C1029.28 132.719 1029.63 134.347 1029.63 136.404V241.288ZM1083.1 193.473C1083.27 199.471 1084.47 205.127 1086.7 210.44C1088.92 215.752 1092.01 220.38 1095.95 224.321C1099.89 228.263 1104.52 231.434 1109.83 233.833C1115.14 236.061 1120.89 237.175 1127.06 237.175C1135.45 237.175 1142.48 235.547 1148.14 232.291C1153.79 229.034 1158.33 225.435 1161.76 221.494C1163.82 219.266 1166.04 218.152 1168.44 218.152C1170.5 218.152 1172.3 218.837 1173.84 220.208C1175.56 221.579 1176.41 223.464 1176.41 225.864C1176.41 226.721 1176.24 227.663 1175.9 228.692C1175.56 229.72 1174.87 230.834 1173.84 232.033C1167.84 238.717 1160.82 243.773 1152.76 247.201C1144.88 250.457 1136.31 252.085 1127.06 252.085C1118.14 252.085 1109.83 250.542 1102.12 247.458C1094.58 244.201 1088.07 239.746 1082.58 234.09C1077.1 228.434 1072.73 221.751 1069.47 214.039C1066.39 206.327 1064.84 197.929 1064.84 188.846C1064.84 179.763 1066.39 171.365 1069.47 163.653C1072.56 155.941 1076.84 149.257 1082.33 143.602C1087.81 137.946 1094.24 133.576 1101.61 130.491C1108.98 127.235 1116.94 125.607 1125.51 125.607C1134.25 125.607 1142.14 127.064 1149.16 129.977C1156.19 132.719 1162.19 136.661 1167.16 141.802C1172.3 146.944 1176.24 153.113 1178.98 160.311C1181.73 167.509 1183.1 175.564 1183.1 184.476C1183.1 190.474 1179.93 193.473 1173.58 193.473H1083.1ZM1165.36 179.591C1164.84 168.28 1161.16 158.94 1154.3 151.571C1147.62 144.03 1138.02 140.26 1125.51 140.26C1119.69 140.26 1114.29 141.374 1109.32 143.602C1104.35 145.658 1099.98 148.572 1096.21 152.342C1092.44 155.941 1089.44 160.14 1087.21 164.938C1084.98 169.566 1083.7 174.45 1083.35 179.591H1165.36ZM1234.84 149.257H1235.35C1238.78 142.231 1244.35 136.575 1252.06 132.291C1259.77 127.835 1267.91 125.607 1276.48 125.607C1291.73 125.607 1303.13 130.148 1310.67 139.232C1318.38 148.315 1322.24 160.311 1322.24 175.221V241.288C1322.24 243.344 1321.9 245.058 1321.21 246.429C1320.53 247.629 1319.75 248.486 1318.9 249C1318.04 249.686 1317.1 250.114 1316.07 250.285C1315.04 250.628 1314.18 250.799 1313.5 250.799C1312.81 250.799 1311.96 250.628 1310.93 250.285C1309.9 250.114 1308.96 249.686 1308.1 249C1307.24 248.486 1306.47 247.629 1305.79 246.429C1305.1 245.058 1304.76 243.344 1304.76 241.288V182.419C1304.76 176.078 1304.24 170.337 1303.22 165.196C1302.19 160.054 1300.39 155.684 1297.82 152.085C1295.42 148.315 1292.08 145.401 1287.79 143.345C1283.68 141.288 1278.45 140.26 1272.11 140.26C1267.48 140.26 1262.94 141.202 1258.49 143.088C1254.2 144.973 1250.35 147.886 1246.92 151.828C1243.49 155.598 1240.75 160.483 1238.69 166.481C1236.64 172.308 1235.61 179.249 1235.61 187.303V241.288C1235.61 243.344 1235.26 245.058 1234.58 246.429C1233.89 247.629 1233.12 248.486 1232.26 249C1231.41 249.686 1230.47 250.114 1229.44 250.285C1228.41 250.628 1227.55 250.799 1226.87 250.799C1226.18 250.799 1225.32 250.628 1224.3 250.285C1223.27 250.114 1222.32 249.686 1221.47 249C1220.61 248.486 1219.84 247.629 1219.15 246.429C1218.47 245.058 1218.13 243.344 1218.13 241.288V155.17C1218.13 153.97 1218.13 152.513 1218.13 150.8C1218.13 149.086 1218.04 147.286 1217.87 145.401C1217.87 143.516 1217.78 141.717 1217.61 140.003C1217.61 138.289 1217.61 136.918 1217.61 135.89C1217.61 134.005 1217.87 132.462 1218.38 131.262C1219.07 130.063 1219.84 129.206 1220.7 128.692C1221.55 128.006 1222.41 127.578 1223.27 127.406C1224.3 127.064 1225.15 126.892 1225.84 126.892C1226.52 126.892 1227.29 126.978 1228.15 127.149C1229.18 127.321 1230.12 127.749 1230.98 128.435C1231.84 129.12 1232.61 130.063 1233.29 131.262C1233.98 132.291 1234.32 133.833 1234.32 135.89L1234.84 149.257ZM1449.25 226.121C1450.62 224.75 1451.82 223.893 1452.84 223.55C1454.04 223.036 1455.16 222.779 1456.19 222.779C1458.59 222.779 1460.47 223.55 1461.84 225.093C1463.21 226.464 1463.9 228.177 1463.9 230.234C1463.9 231.091 1463.73 232.119 1463.38 233.319C1463.04 234.347 1462.18 235.547 1460.81 236.918C1455.84 241.888 1450.02 245.658 1443.33 248.229C1436.65 250.799 1429.02 252.085 1420.45 252.085C1410.68 252.085 1401.86 250.542 1393.98 247.458C1386.09 244.201 1379.32 239.746 1373.67 234.09C1368.18 228.434 1363.9 221.751 1360.81 214.039C1357.73 206.327 1356.19 197.929 1356.19 188.846C1356.19 179.763 1357.73 171.365 1360.81 163.653C1363.9 155.941 1368.18 149.257 1373.67 143.602C1379.32 137.946 1386.09 133.576 1393.98 130.491C1401.86 127.235 1410.68 125.607 1420.45 125.607C1427.31 125.607 1434.16 126.807 1441.02 129.206C1448.05 131.605 1454.13 135.204 1459.27 140.003C1461.5 142.231 1462.61 144.544 1462.61 146.944C1462.61 149.172 1461.84 151.057 1460.3 152.599C1458.76 153.97 1456.87 154.656 1454.64 154.656C1453.44 154.656 1452.24 154.399 1451.04 153.885C1450.02 153.37 1448.3 151.999 1445.9 149.771C1443.33 147.372 1439.9 145.23 1435.62 143.345C1431.34 141.288 1426.37 140.26 1420.71 140.26C1413.68 140.26 1407.34 141.545 1401.69 144.116C1396.03 146.515 1391.15 149.943 1387.03 154.399C1383.09 158.683 1380.01 163.825 1377.78 169.823C1375.72 175.65 1374.7 181.991 1374.7 188.846C1374.7 195.701 1375.72 202.042 1377.78 207.869C1380.01 213.696 1383.09 218.837 1387.03 223.293C1390.98 227.578 1395.77 231.005 1401.43 233.576C1407.09 235.975 1413.43 237.175 1420.45 237.175C1426.79 237.175 1432.19 236.232 1436.65 234.347C1441.28 232.291 1445.47 229.548 1449.25 226.121ZM1500.4 193.473C1500.57 199.471 1501.77 205.127 1504 210.44C1506.23 215.752 1509.31 220.38 1513.26 224.321C1517.2 228.263 1521.82 231.434 1527.14 233.833C1532.45 236.061 1538.19 237.175 1544.36 237.175C1552.76 237.175 1559.78 235.547 1565.44 232.291C1571.1 229.034 1575.64 225.435 1579.06 221.494C1581.12 219.266 1583.35 218.152 1585.75 218.152C1587.81 218.152 1589.6 218.837 1591.15 220.208C1592.86 221.579 1593.72 223.464 1593.72 225.864C1593.72 226.721 1593.55 227.663 1593.2 228.692C1592.86 229.72 1592.18 230.834 1591.15 232.033C1585.15 238.717 1578.12 243.773 1570.07 247.201C1562.18 250.457 1553.62 252.085 1544.36 252.085C1535.45 252.085 1527.14 250.542 1519.42 247.458C1511.88 244.201 1505.37 239.746 1499.89 234.09C1494.4 228.434 1490.03 221.751 1486.78 214.039C1483.69 206.327 1482.15 197.929 1482.15 188.846C1482.15 179.763 1483.69 171.365 1486.78 163.653C1489.86 155.941 1494.15 149.257 1499.63 143.602C1505.11 137.946 1511.54 133.576 1518.91 130.491C1526.28 127.235 1534.25 125.607 1542.82 125.607C1551.56 125.607 1559.44 127.064 1566.47 129.977C1573.5 132.719 1579.49 136.661 1584.46 141.802C1589.6 146.944 1593.55 153.113 1596.29 160.311C1599.03 167.509 1600.4 175.564 1600.4 184.476C1600.4 190.474 1597.23 193.473 1590.89 193.473H1500.4ZM1582.66 179.591C1582.15 168.28 1578.47 158.94 1571.61 151.571C1564.93 144.03 1555.33 140.26 1542.82 140.26C1536.99 140.26 1531.59 141.374 1526.62 143.602C1521.65 145.658 1517.28 148.572 1513.51 152.342C1509.74 155.941 1506.74 160.14 1504.51 164.938C1502.29 169.566 1501 174.45 1500.66 179.591H1582.66Z" fill="#E5D7C1"/>
<path d="M320.051 6.43247C319.534 5.89955 324.454 6.04185 336.91 6.92044C359.794 8.53452 382.639 18.902 400.754 35.8936C414.96 49.2176 423.536 63.1652 427.76 79.8121C430.12 89.1175 430.532 94.3768 430.043 109.054C429.259 132.61 429.165 131.149 431.84 137.216C433.129 140.138 438.816 149.91 444.479 158.932C456.615 178.266 457.966 180.583 457.966 182.061C457.965 184.635 454.724 187.51 448.952 190.054C445.853 191.421 442.025 192.88 440.444 193.298C433.808 195.051 432.76 200.294 437.28 209.144C440.565 215.579 440.529 217.129 436.961 222.716C435.44 225.096 434.197 227.415 434.197 227.87C434.197 228.326 434.706 229.838 435.329 231.232C436.644 234.173 436.478 235.143 433.862 239.825C429.531 247.576 429.27 248.572 429.067 258.087C428.807 270.336 427.42 273.537 420.93 276.861C414.397 280.207 406.938 280.33 385.553 277.444C379.017 276.562 372.603 275.977 371.299 276.144C367.395 276.643 362.178 279.993 359.01 284.035C353.036 291.659 349.732 302.488 349.227 316.1L348.92 324.375C334.529 325.764 342.591 326.769 341.73 313.71L341.119 304.453L338.046 304.085C336.356 303.882 319.799 302.724 301.254 301.511C249.979 300.05 230.559 299.271 230.237 298.878C230.078 298.682 255.258 297.464 286.192 297.084C325.656 297.403 342.432 296.708 342.436 296.24C342.436 295.872 342.95 294.002 343.578 292.084C344.823 288.286 347.409 284.054 351.494 279.13C352.934 277.394 353.958 275.688 353.769 275.339C353.55 274.935 347.051 274.701 335.908 274.696C292.022 274.676 248.124 273.522 204.244 272.825C169.044 272.266 151.793 271.748 151.289 271.234C150.855 270.792 187.175 270.207 291.304 268.978C416.053 267.506 416.053 267.506 417.986 266.326C420.178 264.989 420.274 264.554 420.274 256.294V249.555L416.872 249.212C415 249.023 379.514 248.581 338.015 248.229C296.516 247.877 225.998 247.279 181.307 246.9C83.8296 246.075 66.7535 245.505 120.503 244.873C187.111 244.09 253.719 243.267 320.327 242.5C349.057 242.17 383.848 241.898 397.641 241.898L422.718 241.896L424.865 239.447C427.285 236.685 427.536 234.971 425.874 232.56C424.528 230.607 424.771 228.801 426.787 225.785L428.163 223.726L425.514 223.368C424.057 223.172 398.861 222.859 369.523 222.673C272.236 222.057 174.951 220.63 77.6629 220.37C59.2704 220.321 42.3566 220.08 40.0754 219.834C37.3361 219.539 41.3677 219.339 51.9593 219.243C76.6497 219.021 101.335 218.469 126.03 218.298C212.909 217.696 299.782 216.503 386.659 215.646C412.643 215.39 428.095 215.007 428.531 214.611C429.538 213.694 429.406 212.834 427.562 208.338C426.65 206.112 425.601 202.842 425.232 201.071L424.563 197.851L421.226 197.471C417.825 197.085 333.411 196.162 245.151 195.546C189.27 195.156 133.39 194.596 77.5091 194.178C47.7825 193.955 23.5603 193.659 23.6814 193.521C24.0312 193.132 97.7072 192.157 179.372 191.461C219.959 191.115 262.743 190.682 274.448 190.499C315.166 189.864 355.889 189.665 396.609 189.17L426.182 188.81L432.262 186.911C441.866 183.912 445.959 182.278 446.551 181.208C446.971 180.447 446.488 179.238 444.495 176.049C443.062 173.757 441.464 171.631 440.945 171.323C440.418 171.013 409.545 170.585 371.734 170.364C334.188 170.144 289.164 169.811 271.683 169.623C254.202 169.436 191.146 169.014 131.558 168.685C87.7056 168.443 43.851 168.315 0 167.831C18.0315 167.276 36.0615 167.003 54.1002 166.923C69.8692 166.854 82.9282 166.693 83.1204 166.566C83.3111 166.439 109.958 166.149 142.336 165.923C174.715 165.697 222.971 165.249 249.573 164.926C326.466 163.995 364.594 163.604 400.927 163.376C419.566 163.259 434.96 163.001 435.135 162.802C435.31 162.603 432.912 158.626 429.807 153.965C425.073 146.856 423.88 145.433 422.408 145.136C421.443 144.941 400.63 144.629 376.156 144.441C320.418 144.013 264.685 143.34 208.945 143.068C163.581 142.846 118.218 142.429 72.8543 142.323C45.0866 142.259 25.7018 141.98 26.0075 141.651C26.3008 141.337 54.4919 140.777 89.8243 140.385C155.049 139.661 220.282 139.206 285.503 138.122C296.296 137.943 328.383 137.645 356.809 137.461C385.235 137.277 411.23 136.969 414.575 136.778L420.658 136.43L420.761 128.01C420.839 121.605 420.684 119.422 420.117 118.885C419.088 117.91 403.162 117.732 249.297 116.98C176.94 116.626 111.147 116.199 103.091 116.03C90.9503 115.776 40.3187 115.335 47.2614 115.06C53.4937 114.813 75.1347 114.431 95.3519 114.213C115.569 113.994 139.573 113.667 148.694 113.486C157.814 113.305 191.892 112.874 224.422 112.527C256.952 112.18 302.1 111.625 324.749 111.294C347.399 110.962 378.468 110.686 393.791 110.679L421.653 110.667L421.29 103.254C420.871 94.685 420.607 93.2414 419.356 92.6762C418.481 92.2852 354.307 91.6425 235.754 90.8377C141.713 90.1993 89.4371 89.5841 93.7033 89.1661C95.9891 88.9423 112.282 88.5653 129.909 88.3288C163.346 87.88 298.385 85.7303 330 85.1435C340.033 84.9572 363.415 84.6273 381.96 84.4103C400.505 84.1933 416.227 83.7784 416.898 83.4879L418.116 82.9599L416.834 78.6748C415.081 72.8178 413.338 68.7429 411.993 67.3523C410.942 66.2665 409.078 66.1608 384.529 65.7892C370.043 65.5699 333.068 65.2144 302.362 64.9993C201.887 64.2955 159.233 63.8221 156.985 63.3869C153.589 62.7294 166.304 62.149 198.995 61.4689C234.516 60.7299 406.006 59.909 406.006 56.3914C406.005 55.2807 398.577 46.8108 395.171 44.0369C388.679 38.7491 395.608 39.2127 320.327 39.0303C248.581 38.8564 198.167 38.223 198.166 37.4956C198.166 36.2842 265.585 34.2696 271.131 33.9855C303.034 32.351 366.711 30.31 370.629 30.7964C372.301 31.0041 374.393 30.9466 375.279 30.6689C376.868 30.1707 376.828 30.1186 372.239 26.7288C358.878 16.8601 343.913 10.6185 327.513 8.07382C323.713 7.48425 320.356 6.74572 320.051 6.43247Z" fill="#E5D7C1"/>
</svg>
