<?xml version="1.0" encoding="UTF-8" standalone="no"?>
<svg
   xmlns="http://www.w3.org/2000/svg"
   viewBox="170 75 1070 280"
   xml:space="preserve"
   version="1.1"><defs><clipPath
       id="clipPath22"
       clipPathUnits="userSpaceOnUse"><path
         d="M 1372.5,622.5 H 9195 V 2625 H 1372.5 Z" /></clipPath></defs><g
     transform="matrix(1.3333333,0,0,-1.3333333,0,432)"><g
       transform="scale(0.1)"><g><g
           clip-path="url(#clipPath22)"><path
             style="fill:#F7F5F3;fill-opacity:1;fill-rule:nonzero;stroke:none"
             d="m 2404.77,1471.6 -95.75,-264.37 c -4.06,-7.89 -4.06,-16.06 0,-23.91 l 167.39,-456.441 191.17,112.223 -231.21,632.498 c -3.75,16.02 -23.79,16.02 -31.6,0 z" /><path
             style="fill:#F7F5F3;fill-opacity:1;fill-rule:nonzero;stroke:none"
             d="m 2595.94,1919.88 c -4.06,16.02 -23.79,16.02 -31.92,0 l -95.74,-264.37 c -4.06,-7.85 -4.06,-16.06 0,-23.91 l 270.98,-748.791 191.17,112.23 z" /><path
             style="fill:#F7F5F3;fill-opacity:1;fill-rule:nonzero;stroke:none"
             d="m 2253.32,2500.51 c 4.06,0 7.81,0 11.88,-4.1 l 733.12,-424.38 c 7.81,-4.1 11.91,-11.95 11.91,-23.87 v -848.82 c 0,-7.86 -4.1,-20.08 -11.91,-23.87 L 2265.2,751.051 c -4.07,-4.063 -7.82,-4.063 -11.88,-4.063 -4.06,0 -7.81,0 -11.91,4.063 l -733.09,424.419 c -7.85,4.1 -11.91,11.95 -11.91,23.87 v 848.82 c 0,7.86 4.06,20.08 11.91,23.87 l 733.09,424.38 c 3.79,4.1 7.85,4.1 11.91,4.1 z m 0,124.18 c -27.85,0 -51.95,-7.85 -75.74,-20.12 l -733.13,-424.41 c -47.85,-27.97 -75.7,-76.06 -75.7,-132 v -848.82 c 0,-52.15 27.85,-104.03 75.7,-132 l 733.13,-424.41 c 23.79,-11.95 47.89,-20.121 75.74,-20.121 27.85,0 51.91,7.851 75.7,20.121 l 733.13,424.41 c 47.89,27.97 75.74,76.06 75.74,132 v 848.82 c 0,52.15 -27.85,104.03 -75.74,132 l -729.38,424.41 c -23.75,11.95 -47.85,20.12 -75.7,20.12 z" /><path
             style="fill:#F7F5F3;fill-opacity:1;fill-rule:nonzero;stroke:none"
             d="M 1771.13,883.121 1838.71,1067.34 1974.22,955.082 1846.88,835 Z" /><path
             style="fill:#F7F5F3;fill-opacity:1;fill-rule:nonzero;stroke:none"
             d="m 2193.55,2108.16 h -187.42 c -11.91,0 -27.85,-7.85 -31.91,-20.07 L 1575.9,991.25 1767.07,879.02 2205.43,2084.3 c 4.06,11.95 -4.06,23.86 -15.94,23.86 z" /><path
             style="fill:#F7F5F3;fill-opacity:1;fill-rule:nonzero;stroke:none"
             d="m 2516.17,2108.16 h -187.46 c -11.87,0 -27.85,-7.85 -31.91,-20.07 L 1842.77,839.102 2033.98,726.879 2528.05,2088.09 c 4.06,11.91 -4.07,23.86 -15.98,23.86 z" /><path
             style="fill:#F7F5F3;fill-opacity:1;fill-rule:nonzero;stroke:none"
             d="m 3927.03,1879.96 c 20,0 35.98,-4.1 47.85,-11.95 11.92,-7.85 23.79,-23.87 35.98,-44.03 l 243.12,-440.39 c 4.07,-4.1 4.07,-7.89 0,-11.95 0,-4.1 -4.06,-4.1 -11.87,-4.1 h -91.68 c -7.81,0 -11.88,4.1 -15.98,7.85 l -52.22,96.21 h -342.62 l -51.95,-96.21 c -4.07,-7.85 -7.86,-7.85 -15.98,-7.85 h -95.74 c -7.82,0 -11.88,0 -11.88,4.1 0,4.06 0,7.85 0,11.95 l 239.06,440.39 c 11.88,23.91 23.76,36.18 35.98,44.03 12.19,7.85 23.75,11.95 39.73,11.95 z M 3783.4,1555.55 h 250.94 l -115.47,216.25 c -4.07,4.1 -4.07,4.1 -7.82,4.1 h -4.06 c -4.06,0 -7.81,0 -7.81,-4.1 z" /><path
             style="fill:#F7F5F3;fill-opacity:1;fill-rule:nonzero;stroke:none"
             d="m 4783.75,1879.96 c 55.7,0 95.74,-11.95 119.53,-39.92 23.75,-23.91 35.98,-64.14 35.98,-112.23 v -39.92 c 0,-44.02 -7.85,-76.09 -23.79,-99.96 -15.98,-23.91 -43.79,-39.96 -83.56,-48.13 l 123.6,-156.21 c 4.06,-4.1 4.06,-7.89 4.06,-11.95 0,-4.1 -4.06,-7.85 -11.87,-7.85 h -95.75 c -7.81,0 -11.91,0 -11.91,4.06 -4.06,0 -4.06,4.1 -7.81,7.85 l -115.47,152.15 H 4481.8 V 1379.8 c 0,-11.95 -4.07,-16.01 -15.98,-16.01 h -79.77 c -11.91,0 -15.97,4.06 -15.97,16.01 v 476.25 c 0,16.06 7.81,23.91 23.79,23.91 h 394.57 z M 4480.86,1615.9 h 278.79 c 23.79,0 43.79,4.06 51.95,16.01 11.88,11.96 15.94,27.97 15.94,48.13 v 32.03 c 0,23.91 -4.06,39.92 -15.94,48.13 -11.91,11.95 -27.85,16.01 -51.95,16.01 h -270.98 c -7.81,0 -7.81,-4.06 -7.81,-7.85 z" /><path
             style="fill:#F7F5F3;fill-opacity:1;fill-rule:nonzero;stroke:none"
             d="m 5552.85,1879.96 c 51.95,0 87.62,-11.95 107.62,-32.07 20.04,-20.12 31.91,-52.19 31.91,-92.11 v -36.13 c 0,-39.92 -15.93,-71.99 -47.85,-92.11 31.92,-20.16 51.95,-52.19 51.95,-96.21 v -44.03 c 0,-20.11 -4.1,-36.13 -7.85,-52.18 -3.75,-16.02 -11.87,-27.97 -20,-39.92 -11.91,-11.92 -23.79,-20.12 -39.76,-23.87 -15.94,-4.1 -35.98,-7.89 -59.77,-7.89 h -434.3 c -15.93,0 -23.78,7.89 -23.78,23.9 v 468.4 c 0,16.06 7.85,23.91 23.78,23.91 h 422.43 -4.38 z m -330.74,-212.19 h 298.83 c 23.79,0 39.72,4.07 47.85,11.96 8.16,7.85 11.91,16.01 11.91,32.03 v 23.9 c 0,16.02 -4.06,27.97 -11.91,32.07 -7.81,7.86 -23.75,11.96 -39.73,11.96 h -298.83 c -7.81,0 -7.81,-4.1 -7.81,-7.89 v -104.03 z m 0,-80.15 v -108.17 c 0,-7.85 4.06,-7.85 7.81,-7.85 h 298.83 c 20.04,0 31.91,4.1 39.73,11.95 7.85,7.86 11.91,20.12 11.91,32.07 v 27.97 c 0,16.02 -4.06,27.97 -11.91,36.14 -7.82,8.2 -23.75,11.95 -51.92,11.95 h -298.51 z" /><path
             style="fill:#F7F5F3;fill-opacity:1;fill-rule:nonzero;stroke:none"
             d="m 5967.11,1879.96 c 11.91,0 15.98,-4.1 15.98,-16.05 v -480.32 c 0,-11.95 -4.07,-16.05 -15.98,-16.05 h -79.77 c -11.91,0 -15.97,4.1 -15.97,16.05 v 480.32 c 0,11.95 4.06,16.05 15.97,16.05 z" /><path
             style="fill:#F7F5F3;fill-opacity:1;fill-rule:nonzero;stroke:none"
             d="m 6736.21,1879.96 c 11.91,0 15.98,-4.1 15.98,-16.05 v -71.96 c 0,-11.95 -4.07,-16.05 -15.98,-16.05 H 6505 v -392.31 c 0,-11.95 -4.06,-16.05 -15.94,-16.05 h -79.8 c -11.88,0 -15.98,4.1 -15.98,16.05 v 392.31 h -231.21 c -11.91,0 -15.98,4.1 -15.98,16.05 v 71.96 c 0,11.95 4.07,16.05 15.98,16.05 z" /><path
             style="fill:#F7F5F3;fill-opacity:1;fill-rule:nonzero;stroke:none"
             d="m 7314.14,1879.96 c 55.7,0 95.78,-11.95 119.53,-39.92 23.79,-23.91 36.02,-64.14 36.02,-112.23 v -39.92 c 0,-44.02 -7.85,-76.09 -23.79,-99.96 -15.98,-23.91 -43.83,-39.96 -83.56,-48.13 l 123.6,-156.21 c 4.06,-4.1 4.06,-7.89 4.06,-11.95 0,-4.1 -4.06,-7.85 -11.88,-7.85 h -95.74 c -7.85,0 -11.91,0 -11.91,4.06 -4.06,0 -4.06,4.1 -7.81,7.85 l -115.47,152.15 H 7012.23 V 1379.8 c 0,-11.95 -4.11,-16.01 -15.98,-16.01 h -79.8 c -11.88,0 -15.94,4.06 -15.94,16.01 v 476.25 c 0,16.06 7.81,23.91 23.79,23.91 h 394.57 z M 7011.29,1615.9 h 278.79 c 23.79,0 43.79,4.06 51.91,16.01 11.92,11.96 15.98,27.97 15.98,48.13 v 32.03 c 0,23.91 -4.06,39.92 -15.98,48.13 -11.87,11.95 -27.85,16.01 -51.91,16.01 H 7019.1 c -7.81,0 -7.81,-4.06 -7.81,-7.85 z" /><path
             style="fill:#F7F5F3;fill-opacity:1;fill-rule:nonzero;stroke:none"
             d="m 7724.69,1879.96 c 11.87,0 15.97,-4.1 15.97,-16.05 v -292.35 c 0,-20.11 0,-36.13 4.07,-48.08 4.06,-11.96 7.81,-23.91 15.97,-32.07 8.09,-8.17 15.9,-11.96 27.82,-16.06 11.87,-4.06 27.85,-4.06 47.85,-4.06 h 203.4 c 20.03,0 36.01,0 47.85,4.06 11.91,4.1 23.79,7.89 27.89,16.06 7.81,7.85 11.87,20.11 15.9,32.07 4.14,11.95 4.14,27.97 4.14,48.08 v 292.35 c 0,11.95 4.06,16.05 15.9,16.05 h 79.8 c 11.91,0 15.98,-4.1 15.98,-16.05 v -304.3 c 0,-36.13 -4.07,-64.1 -11.92,-88.01 -7.81,-23.9 -20.04,-44.02 -35.93,-60.04 -15.98,-16.05 -36.02,-27.97 -63.83,-32.07 -27.89,-7.85 -55.71,-11.95 -95.78,-11.95 h -211.18 c -36.01,0 -67.89,4.1 -95.78,11.95 -23.79,7.85 -47.85,20.12 -63.83,32.07 -15.97,16.02 -27.85,36.14 -36.01,60.04 -7.81,23.91 -11.84,55.94 -11.84,88.01 v 304.3 c 0,11.95 4.03,16.05 15.98,16.05 z" /><path
             style="fill:#F7F5F3;fill-opacity:1;fill-rule:nonzero;stroke:none"
             d="m 8561.41,1879.96 c 11.83,0 20,0 27.81,-4.1 7.81,0 15.98,-4.06 20.04,-7.85 4.02,-4.1 11.91,-7.85 15.97,-16.02 4.03,-7.85 7.78,-16.05 15.98,-28.01 l 151.41,-352.38 c 4.06,-4.1 4.06,-7.85 11.87,-7.85 h 7.85 c 4.07,0 7.82,4.06 11.88,7.85 l 151.4,352.38 c 4.15,11.96 7.9,20.16 15.98,28.01 4.06,7.85 7.89,11.92 15.98,16.02 4.06,4.1 11.91,7.85 20.04,7.85 8.08,0 15.97,4.1 27.81,4.1 h 79.8 c 23.75,0 43.79,-4.1 51.96,-16.05 7.81,-11.92 11.87,-32.03 11.87,-60.04 v -420.28 c 0,-11.95 -4.06,-16.05 -15.97,-16.05 h -75.71 c -11.91,0 -15.97,4.1 -15.97,16.05 v 384.14 c 0,4.07 -4.03,7.86 -4.03,7.86 h -7.81 c -4.1,0 -7.85,-4.11 -7.85,-4.11 l -147.38,-328.16 c -4.07,-11.95 -11.88,-23.91 -20.04,-32.07 -8.09,-8.2 -11.84,-16.05 -20.04,-23.91 -7.78,-4.06 -15.98,-11.95 -23.75,-11.95 -7.81,-4.06 -20.04,-4.06 -31.88,-4.06 h -36.01 c -11.92,0 -23.75,0 -31.96,4.06 -8.08,4.1 -15.89,7.89 -23.75,11.95 -7.81,4.11 -11.87,11.96 -20.03,23.91 -7.82,7.85 -11.84,20.12 -20.04,32.07 l -147.35,328.16 c 0,4.11 -4.06,4.11 -7.81,4.11 h -7.81 c -4.1,0 -4.1,-4.11 -4.1,-7.86 v -384.45 c 0,-11.95 -4.07,-16.05 -15.9,-16.05 h -76.06 c -11.95,0 -15.97,4.1 -15.97,16.05 v 420.59 c 0,28.01 4.02,48.12 11.91,60.04 7.81,11.95 27.81,16.05 51.91,16.05 h 79.81 z" /></g></g></g></g></svg>
