<svg width="201" height="201" viewBox="0 0 201 201" fill="none" xmlns="http://www.w3.org/2000/svg">
<rect width="201" height="201" rx="100.5" fill="#E5D7C1"/>
<g transform="translate(20.5, 20.5) scale(6.67)">
<path fill-rule="evenodd" d="M9.827 18a2.005 2.005 0 0 1-1.912-1.395l-1.36-4.272H5.72a2.01 2.01 0 0 1-1.912-1.396L3 8.4h3.029L4.431 6H19.57l-1.6 2.4H21l-.808 2.538a2.005 2.005 0 0 1-1.912 1.395h-.835l-1.36 4.272A2.005 2.005 0 0 1 14.173 18zM8.8 11.166c0 .645.482 1.168 1.078 1.168c.595 0 1.078-.523 1.078-1.168c0-.643-.483-1.166-1.078-1.166S8.8 10.523 8.8 11.166m6.4 0c0 .645-.482 1.168-1.078 1.168c-.595 0-1.078-.523-1.078-1.168c0-.643.483-1.166 1.078-1.166s1.078.523 1.078 1.166" clip-rule="evenodd" fill="#111111"/>
</g>
</svg>
