<svg width="498" height="135" viewBox="0 0 498 135" fill="none" xmlns="http://www.w3.org/2000/svg">
<path d="M67.2266 1.21582H67.2295C103.687 1.21584 133.241 30.7703 133.241 67.2275V67.2305C133.241 103.688 103.687 133.242 67.2295 133.242H67.2266C30.7693 133.242 1.21486 103.688 1.21484 67.2305V67.2275C1.21504 30.7704 30.7694 1.21602 67.2266 1.21582Z" fill="#111111" stroke="#111111" stroke-width="2.4318"/>
<path d="M67.2295 0H67.2269C30.098 0 -0.000976562 30.099 -0.000976562 67.2279V67.2304C-0.000976562 104.359 30.098 134.458 67.2269 134.458H67.2295C104.358 134.458 134.457 104.359 134.457 67.2304V67.2279C134.457 30.099 104.358 0 67.2295 0Z" fill="url(#paint0_radial_444_11087)" fill-opacity="0.7"/>
<path d="M67.2266 1.23145H67.2295C103.678 1.23146 133.226 30.7788 133.227 67.2275V67.2305C133.227 103.679 103.678 133.228 67.2295 133.228H67.2266C30.7778 133.227 1.23049 103.679 1.23047 67.2305V67.2275C1.23067 30.7789 30.7779 1.23164 67.2266 1.23145Z" stroke="url(#paint1_linear_444_11087)" stroke-width="2.46258"/>
<path d="M98.7881 56.9683H92.585V42.1655H56.5117L76.3252 65.0747L78.0801 67.103L76.3252 69.1313L56.2959 92.2905H92.585V77.4878H98.7881V98.4937H51.085L50.1562 97.4028L26.1777 69.2388L24.4658 67.228L26.1777 65.2173L50.1562 37.0532L51.085 35.9624H98.7881V56.9683ZM32.6123 67.228L51.0449 88.8784L69.8789 67.103L51.1523 45.4507L32.6123 67.228Z" fill="white"/>
<path d="M215.589 34.1772V26.8838H162.023V106.662H215.589V99.3681H170.457V69.508H212.17V62.2139H170.457V34.1772H215.589Z" fill="black"/>
<path d="M236.843 102.787C234.221 100.205 232.911 95.949 232.911 90.0226V57.0851H222.881V49.7909H232.911V32.5815H241.116V49.7909H255.933V57.0851H241.116V90.0226C241.116 93.3671 241.781 95.7604 243.112 97.2024C244.439 98.6465 246.662 99.3679 249.778 99.3679H255.933V106.662H249.778C243.776 106.662 239.464 105.371 236.843 102.787Z" fill="black"/>
<path d="M267.785 26.8838H275.991V57.6552C277.738 54.9969 279.98 52.8686 282.716 51.273C285.451 49.6775 288.223 48.8797 291.035 48.8797H299.013C304.255 48.8797 308.49 50.6659 311.72 54.2363C314.949 57.8086 316.564 62.4809 316.564 68.2546V106.662H308.358V68.0267C308.358 64.5328 307.484 61.6832 305.737 59.4785C303.989 57.2759 301.671 56.1739 298.784 56.1739H291.262C287.69 56.1739 284.442 57.5612 281.519 60.3337C278.593 63.1076 276.75 66.659 275.991 70.99V106.662H267.785V26.8838Z" fill="black"/>
<path d="M334 101.933C330.125 98.1715 328.188 93.1767 328.188 86.9454V70.648C328.188 64.1145 330.125 58.8519 334 54.8631C337.876 50.8743 343.004 48.8799 349.386 48.8799H358.731C364.809 48.8799 369.71 50.8175 373.434 54.6921C377.155 58.5673 379.019 63.696 379.019 70.0781V80.1076H336.394V86.9454C336.394 90.897 337.59 94.1077 339.984 96.576C342.377 99.0457 345.511 100.28 349.386 100.28H358.048C361.846 100.28 364.924 99.2363 367.279 97.1459C369.633 95.0569 370.812 92.2647 370.812 88.7694H378.79C378.79 94.393 376.89 98.9321 373.092 102.388C369.291 105.847 364.278 107.574 358.048 107.574H349.386C343.004 107.574 337.876 105.694 334 101.933ZM370.812 73.0413V70.0781C370.812 65.9006 369.71 62.5386 367.508 59.9918C365.302 57.4471 362.379 56.174 358.731 56.174H349.386C345.511 56.174 342.377 57.5039 339.984 60.1628C337.59 62.8232 336.394 66.3171 336.394 70.648V73.0413H370.812Z" fill="black"/>
<path d="M390.643 49.7912H398.62V58.2252C400.367 55.4898 402.647 53.25 405.458 51.501C408.269 49.754 411.08 48.8799 413.893 48.8799H421.642C426.885 48.8799 431.119 50.6661 434.349 54.2364C437.578 57.8087 439.194 62.4811 439.194 68.2547V106.662H430.988V68.0269C430.988 64.5329 430.113 61.6833 428.366 59.4786C426.618 57.276 424.301 56.174 421.415 56.174H414.12C410.547 56.174 407.3 57.5809 404.376 60.3907C401.45 63.2024 399.607 66.812 398.849 71.2179V106.662H390.643V49.7912Z" fill="black"/>
<path d="M454.408 103.243C451.102 100.357 449.449 96.4814 449.449 91.6184V87.971C449.449 83.1844 451.16 79.3491 454.578 76.4602C457.997 73.5741 462.516 72.1293 468.141 72.1293H475.435C477.942 72.1293 480.524 72.5106 483.185 73.2691C485.843 74.0297 488.123 75.0553 490.023 76.3466V66.887C490.023 63.696 489.035 61.0938 487.059 59.0798C485.084 57.0678 482.462 56.0598 479.196 56.0598H470.077C466.811 56.0598 464.189 56.8204 462.215 58.3395C460.238 59.86 459.251 61.872 459.251 64.3795H451.045C451.045 59.7457 452.792 56.003 456.288 53.1533C459.782 50.3044 464.38 48.8799 470.077 48.8799H479.196C484.817 48.8799 489.356 50.5322 492.815 53.8375C496.271 57.1428 498.001 61.4927 498.001 66.887V106.662H490.25V98.6847C488.502 101.419 486.204 103.585 483.356 105.181C480.507 106.777 477.56 107.574 474.523 107.574H467.684C462.138 107.574 457.712 106.132 454.408 103.243ZM474.751 100.394C478.322 100.394 481.513 99.2932 484.324 97.0892C487.135 94.8859 489.034 91.9605 490.023 88.3131V84.0964C488.502 82.6537 486.394 81.4949 483.698 80.6201C481 79.748 478.244 79.3099 475.435 79.3099H468.141C465.024 79.3099 462.499 80.1076 460.561 81.7032C458.623 83.2987 457.655 85.3891 457.655 87.971V91.6184C457.655 94.2788 458.567 96.405 460.391 98.0005C462.215 99.5961 464.645 100.394 467.684 100.394L474.751 100.394Z" fill="black"/>
<defs>
<radialGradient id="paint0_radial_444_11087" cx="0" cy="0" r="1" gradientUnits="userSpaceOnUse" gradientTransform="translate(67.3726 19.6326) rotate(90) scale(141.748 99.7765)">
<stop offset="0.03125" stop-color="#3A3A3A"/>
<stop offset="1" stop-color="#1C1C1C"/>
</radialGradient>
<linearGradient id="paint1_linear_444_11087" x1="67.2282" y1="-1.26849" x2="67.2282" y2="135.727" gradientUnits="userSpaceOnUse">
<stop stop-color="white"/>
<stop offset="1" stop-color="#111111"/>
</linearGradient>
</defs>
</svg>
