<svg width="24" height="24" viewBox="0 0 24 24" fill="none" xmlns="http://www.w3.org/2000/svg">
<path d="M10.1493 0.144634C3.61262 1.16503 -0.875765 7.31393 0.144634 13.8506C1.16503 20.3874 7.31393 24.8758 13.8507 23.8554C20.3874 22.835 24.8758 16.6861 23.8554 10.1493C22.835 3.61262 16.6861 -0.875765 10.1493 0.144634ZM10.3913 1.69435C11.1359 1.57811 11.8752 1.54447 12.5985 1.58634C11.6514 2.75493 10.2238 3.95726 8.07512 4.85703C6.0427 5.70848 3.95834 6.58312 2.35821 8.02749C3.70453 4.77412 6.66496 2.27604 10.3913 1.69435ZM1.69435 13.6087C1.60678 13.0477 1.5665 12.4897 1.56946 11.9391C1.76317 11.3954 2.00965 10.8997 2.31071 10.4487C3.68127 8.39801 6.11007 7.3807 8.68117 6.30387C11.6099 5.07754 13.3481 3.32747 14.3632 1.84188C14.9053 1.96918 15.4341 2.13824 15.9439 2.3476C15.8055 2.78352 15.5824 3.34222 15.2232 3.96503C14.4517 5.30227 12.8756 7.21595 9.74899 8.73589C7.67292 9.74497 5.09017 11.0014 3.56455 13.8232C3.14145 14.606 2.81049 15.4808 2.56925 16.4574C2.1522 15.5756 1.85233 14.6207 1.69435 13.6087ZM3.80167 18.4439C4.48017 13.0429 7.397 11.6232 10.4358 10.1455C13.2097 8.79654 14.9298 7.15484 15.9967 5.66592C15.5469 8.15864 14.3918 10.5321 12.5461 12.7474C10.6542 15.0176 8.7788 17.7852 9.21904 21.0986C9.26366 21.4353 9.33202 21.7715 9.42309 22.1058C7.19554 21.5343 5.21659 20.2368 3.80167 18.4439ZM13.7506 13.7516C17.0417 9.8025 17.7578 5.9387 17.7795 3.39295C17.7797 3.3691 17.7794 3.34692 17.7797 3.32307C19.5356 4.49358 20.9345 6.18892 21.7245 8.22457C21.6234 8.87298 21.4221 9.78545 21.0189 10.7874C19.9929 13.3367 18.2102 15.2438 15.718 16.4551C14.0286 17.2768 12.176 18.2883 10.7235 20.0581C10.7465 17.7042 12.1755 15.6413 13.7506 13.7516ZM13.6095 22.3055C12.7866 22.434 11.9702 22.4614 11.1737 22.3984C11.1541 22.3491 11.1353 22.2996 11.1172 22.2501C12.2847 20.1851 14.0817 18.9949 16.4035 17.8665C19.8701 16.1808 21.5838 13.5162 22.4192 11.5054C22.6731 16.7569 18.9189 21.4767 13.6095 22.3055Z" fill="white"/>
</svg>
