<svg width="199" height="199" viewBox="0 0 199 199" fill="none" xmlns="http://www.w3.org/2000/svg">
<rect width="199" height="199" rx="99.5" fill="#E5D7C1"/>
<g transform="translate(39.5 39.5)">
<!-- Body -->
<path fill-rule="evenodd" clip-rule="evenodd" d="M60 10C30 10 15 35 15 55C15 75 30 95 45 100L45 110L55 110L55 100C55 100 60 102 65 100L65 110L75 110L75 100C90 95 105 75 105 55C105 35 90 10 60 10ZM45 35C45 38.314 42.314 41 39 41C35.686 41 33 38.314 33 35C33 31.686 35.686 29 39 29C42.314 29 45 31.686 45 35ZM81 41C84.314 41 87 38.314 87 35C87 31.686 84.314 29 81 29C77.686 29 75 31.686 75 35C75 38.314 77.686 41 81 41Z" fill="#111111"/>
<!-- Left Claw -->
<path d="M20 45C5 40 0 50 5 60C10 70 20 65 25 55C28 48 25 45 20 45Z" fill="#111111"/>
<!-- Right Claw -->
<path d="M100 45C115 40 120 50 115 60C110 70 100 65 95 55C92 48 95 45 100 45Z" fill="#111111"/>
<!-- Antenna -->
<path d="M45 15Q35 5 30 8" stroke="#111111" stroke-width="3" stroke-linecap="round"/>
<path d="M75 15Q85 5 90 8" stroke="#111111" stroke-width="3" stroke-linecap="round"/>
</g>
</svg>
