<?xml version="1.0" encoding="UTF-8"?>
<svg id="logosandtypes_com" data-name="logosandtypes com" xmlns="http://www.w3.org/2000/svg" viewBox="0 0 150 150">
  <defs>
    <style>
      .cls-1 {
        fill: #110f23;
      }

      .cls-2 {
        fill: none;
      }
    </style>
  </defs>
  <path class="cls-2" d="M0,0H150V150H0V0Z"/>
  <path class="cls-1" d="M90.51,63.44c0,7.51-6.09,13.61-13.6,13.61v13.61c15.02,0,27.19-12.18,27.19-27.21s-12.17-27.21-27.19-27.21c-4.95,0-9.6,1.32-13.6,3.64-8.13,4.7-13.6,13.49-13.6,23.57v68.03l12.22,12.23,1.37,1.37V63.44c0-7.51,6.09-13.61,13.6-13.61s13.6,6.09,13.6,13.61Z"/>
  <path class="cls-1" d="M76.91,9.02c-9.91,0-19.19,2.65-27.19,7.29-5.12,2.96-9.71,6.73-13.6,11.14-8.46,9.59-13.6,22.2-13.6,35.99v40.82l13.6,13.61V63.44c0-12.09,5.25-22.95,13.6-30.42,3.92-3.51,8.53-6.28,13.6-8.06,4.25-1.51,8.83-2.33,13.6-2.33,22.52,0,40.79,18.28,40.79,40.82s-18.26,40.82-40.79,40.82v13.61c30.04,0,54.38-24.37,54.38-54.42S106.95,9.02,76.91,9.02Z"/>
</svg>


