<svg width="222" height="222" viewBox="0 0 222 222" fill="none" xmlns="http://www.w3.org/2000/svg">
<path d="M110.585 1.99902H110.589C170.541 1.99902 219.142 50.6 219.142 110.552V110.556C219.142 170.507 170.541 219.108 110.589 219.108H110.585C50.6332 219.108 2.03223 170.507 2.03223 110.556V110.552C2.03223 50.6 50.6332 1.99903 110.585 1.99902Z" fill="white" stroke="black" stroke-width="3.99894"/>
<path d="M92.8496 28.2549C54.9005 36.3449 26.4375 70.0586 26.4375 110.421C26.4377 150.783 54.9008 184.495 92.8496 192.585V201.256C50.1763 193.036 17.9416 155.493 17.9414 110.421C17.9414 65.3482 50.1761 27.8042 92.8496 19.584V28.2549ZM128.21 19.6152C170.805 27.8976 202.96 65.4039 202.96 110.421C202.96 155.438 170.805 192.942 128.21 201.225V192.552C166.08 184.402 194.464 150.727 194.464 110.421C194.464 70.1146 166.08 36.4378 128.21 28.2881V19.6152Z" fill="black"/>
<path d="M123.633 107.329C130.691 108.674 136.166 111.268 140.057 115.112C143.948 118.859 145.894 123.664 145.894 129.525V138.749C145.894 145.764 143.36 151.433 138.292 155.757C133.225 159.984 126.574 162.098 118.339 162.098H115.488V176.8H105.715V162.098H102.729C97.2993 162.098 92.5032 160.897 88.3405 158.495C84.1778 155.997 80.9201 152.538 78.5673 148.118C76.305 143.602 75.1738 138.413 75.1738 132.552H84.947C84.947 138.509 86.5759 143.361 89.8336 147.109C93.1819 150.76 97.5708 152.586 103 152.586H118.067C123.406 152.586 127.705 151.337 130.963 148.838C134.22 146.244 135.849 142.881 135.849 138.749V129.525C135.849 126.258 134.627 123.471 132.184 121.165C129.831 118.859 126.574 117.37 122.411 116.697L97.978 112.373C91.1005 111.124 85.7615 108.53 81.9608 104.59C78.1601 100.651 76.2597 95.7023 76.2597 89.7449V81.9619C76.2597 74.9475 78.703 69.3745 83.5896 65.2428C88.5667 61.0149 95.1275 58.901 103.272 58.901H105.715V44.1997H115.488V58.901H118.61C126.302 58.901 132.501 61.3993 137.207 66.3958C141.912 71.2962 144.265 77.7821 144.265 85.8534H134.492C134.492 80.5686 133.044 76.3408 130.148 73.1699C127.252 69.9991 123.406 68.4136 118.61 68.4136H103.272C98.1137 68.4136 93.9963 69.6628 90.9195 72.161C87.8428 74.5632 86.3044 77.8301 86.3044 81.9619V89.7449C86.3044 93.108 87.4356 95.9425 89.6979 98.2486C92.0507 100.555 95.2632 102.092 99.3354 102.861L123.633 107.329Z" fill="black"/>
</svg>
