<svg width="201" height="201" viewBox="0 0 201 201" fill="none" xmlns="http://www.w3.org/2000/svg">
<rect width="201" height="201" rx="100.5" fill="#E5D7C1"/>
<path d="M78.4922 65.3034C77.1524 65.0953 77.0958 65.0708 77.7264 64.9738C78.9348 64.7875 81.7879 65.0414 83.7541 65.5095C88.3442 66.6023 92.5209 69.4017 96.9793 74.3733L98.1638 75.6943L99.8581 75.4214C106.996 74.2725 114.258 75.1855 120.332 77.9957C122.003 78.7689 124.637 80.308 124.966 80.7035C125.071 80.8294 125.264 81.6409 125.394 82.5066C125.845 85.5017 125.62 87.7976 124.705 89.5123C124.207 90.4455 124.18 90.7411 124.514 91.5397C124.781 92.1771 125.526 92.6486 126.264 92.6477C127.773 92.6457 129.398 90.2018 130.15 86.8015L130.449 85.4509L131.042 86.1228C134.291 89.8097 136.843 94.8378 137.281 98.4168L137.395 99.3498L136.849 98.5015C135.909 97.0419 134.965 96.048 133.755 95.2466C131.575 93.8019 129.27 93.3104 123.166 92.9881C117.653 92.6971 114.533 92.2256 111.439 91.2149C106.175 89.496 103.521 87.2067 97.2676 78.9896C94.4902 75.3401 92.7734 73.3207 91.0658 71.6945C87.1856 67.9995 83.3728 66.0616 78.4922 65.3034Z" fill="#111111"/>
<path d="M126.21 73.4524C126.349 71.0069 126.68 69.3936 127.346 67.9206C127.609 67.3374 127.856 66.8601 127.894 66.8601C127.932 66.8601 127.818 67.2905 127.64 67.8165C127.156 69.2463 127.076 71.2017 127.409 73.4769C127.833 76.3637 128.073 76.7801 131.12 79.8985C132.549 81.3612 134.211 83.2058 134.813 83.9978L135.909 85.4379L134.813 84.4087C133.473 83.1502 130.392 80.6958 129.712 80.3448C129.256 80.1096 129.188 80.1135 128.906 80.3942C128.647 80.6528 128.592 81.0412 128.556 82.8781C128.5 85.7406 128.111 87.5781 127.17 89.4154C126.662 90.409 126.582 90.197 127.042 89.0755C127.385 88.238 127.42 87.8699 127.418 85.0984C127.412 79.5306 126.752 78.192 122.882 75.8988C121.901 75.3179 120.286 74.48 119.292 74.0369C118.298 73.5939 117.508 73.2078 117.537 73.179C117.646 73.0697 121.421 74.1731 122.94 74.7584C125.2 75.6291 125.573 75.7419 125.848 75.6369C126.032 75.5666 126.121 75.0299 126.21 73.4524Z" fill="#111111"/>
<path d="M81.0949 82.9776C78.3748 79.227 76.692 73.4764 77.0562 69.1775L77.169 67.8472L77.788 67.9604C78.9509 68.1729 80.9554 68.9203 81.8943 69.4913C84.4704 71.0582 85.5856 73.1213 86.7203 78.419C87.0526 79.9705 87.4886 81.7265 87.6892 82.3212C88.0124 83.278 89.2329 85.5131 90.2252 86.9647C90.94 88.0101 90.4653 88.5055 88.8852 88.3626C86.4722 88.1444 83.2036 85.8852 81.0949 82.9776Z" fill="#111111"/>
<path d="M122.911 110.892C110.199 105.766 105.722 101.316 105.722 93.8089C105.722 92.7041 105.76 91.8 105.806 91.8C105.853 91.8 106.344 92.1648 106.899 92.6104C109.477 94.681 112.363 95.5655 120.354 96.733C125.057 97.4203 127.703 97.9752 130.144 98.786C137.902 101.363 142.703 106.593 143.847 113.717C144.18 115.787 143.985 119.668 143.446 121.714C143.02 123.33 141.721 126.242 141.376 126.354C141.28 126.385 141.187 126.018 141.162 125.519C141.032 122.844 139.682 120.24 137.416 118.289C134.839 116.072 131.376 114.306 122.911 110.892Z" fill="#111111"/>
<path d="M113.987 113.022C113.828 112.072 113.551 110.86 113.373 110.328L113.049 109.36L113.651 110.037C114.485 110.974 115.144 112.174 115.702 113.771C116.128 114.99 116.176 115.353 116.173 117.334C116.17 119.279 116.116 119.687 115.723 120.784C115.102 122.514 114.332 123.741 113.04 125.058C110.718 127.425 107.733 128.736 103.425 129.279C102.676 129.374 100.493 129.533 98.5744 129.633C93.7385 129.885 90.5559 130.405 87.6962 131.411C87.285 131.555 86.9178 131.643 86.8807 131.606C86.7649 131.491 88.7121 130.328 90.3204 129.552C92.588 128.458 94.8453 127.861 99.9031 127.018C102.402 126.601 104.982 126.095 105.637 125.894C111.824 123.994 115.005 119.091 113.987 113.022Z" fill="#111111"/>
<path d="M119.814 123.387C118.125 119.75 117.737 116.24 118.662 112.965C118.761 112.615 118.921 112.329 119.016 112.329C119.112 112.329 119.511 112.545 119.902 112.808C120.68 113.333 122.241 114.217 126.4 116.488C131.589 119.321 134.548 121.516 136.56 124.022C138.322 126.218 139.412 128.718 139.937 131.768C140.234 133.495 140.06 137.651 139.618 139.39C138.222 144.874 134.98 149.181 130.355 151.694C129.677 152.062 129.069 152.365 129.003 152.366C128.937 152.368 129.184 151.739 129.551 150.969C131.107 147.712 131.284 144.543 130.108 141.016C129.388 138.857 127.919 136.222 124.955 131.768C121.507 126.591 120.662 125.212 119.814 123.387Z" fill="#111111"/>
<path d="M72.0675 143.006C76.7848 139.017 82.654 136.183 88.0006 135.314C90.3047 134.938 94.143 135.087 96.2766 135.634C99.6968 136.511 102.756 138.474 104.347 140.814C105.902 143.1 106.569 145.092 107.264 149.525C107.538 151.274 107.836 153.03 107.926 153.427C108.448 155.725 109.463 157.561 110.72 158.483C112.718 159.948 116.159 160.039 119.543 158.717C120.117 158.492 120.616 158.337 120.651 158.372C120.773 158.494 119.069 159.637 117.867 160.238C116.25 161.047 114.963 161.361 113.254 161.361C110.155 161.361 107.581 159.781 105.434 156.561C105.012 155.928 104.062 154.029 103.324 152.343C101.057 147.164 99.9372 145.587 97.3049 143.86C95.0142 142.358 92.06 142.089 89.8375 143.18C86.9182 144.614 86.1036 148.35 88.1946 150.718C89.0255 151.659 90.5753 152.471 91.8426 152.629C94.2131 152.924 96.2505 151.118 96.2505 148.721C96.2505 147.164 95.6531 146.276 94.1494 145.596C92.0955 144.668 89.888 145.753 89.8985 147.686C89.9031 148.51 90.2613 149.027 91.086 149.401C91.6151 149.641 91.6274 149.66 91.1958 149.57C89.3114 149.178 88.87 146.903 90.3852 145.392C92.2042 143.579 95.9659 144.379 97.2577 146.855C97.8003 147.894 97.8634 149.965 97.3903 151.215C96.3312 154.014 93.2437 155.485 90.1116 154.684C87.9793 154.139 87.111 153.549 84.54 150.896C80.0725 146.287 78.338 145.394 71.8973 144.387L70.6631 144.194L72.0675 143.006Z" fill="#111111"/>
<path fill-rule="evenodd" clip-rule="evenodd" d="M38.3794 39.757C53.299 57.8932 76.3005 86.1304 77.4426 87.7113C78.3853 89.0166 78.0306 90.1901 76.4154 91.1098C75.5171 91.6213 73.6703 92.1395 72.7457 92.1395C71.6999 92.1395 70.5219 91.6351 69.664 90.8199C69.0574 90.2439 66.61 86.5836 60.96 77.8031C56.6369 71.0847 53.019 65.5113 52.9204 65.4181C52.6922 65.2022 52.6961 65.2095 60.5192 79.229C65.4315 88.0322 67.0897 91.1445 67.0897 91.5607C67.0897 92.4073 66.8593 92.8522 65.8165 94.0172C64.0782 95.9594 63.3012 98.1417 62.7403 102.658C62.1112 107.721 60.3431 111.298 55.4428 117.419C52.5743 121.002 52.1049 121.658 51.3811 123.103C50.4693 124.921 50.2187 125.94 50.1171 128.236C50.0098 130.664 50.2189 132.233 50.9596 134.554C51.608 136.587 52.2847 137.929 54.015 140.613C55.5082 142.929 56.3681 144.651 56.3681 145.324C56.3681 145.86 56.4702 145.86 58.7841 145.337C64.3213 144.085 68.8177 141.882 71.3465 139.183C72.9115 137.512 73.2789 136.589 73.2908 134.3C73.2986 132.802 73.2461 132.489 72.842 131.627C72.184 130.225 70.9863 129.059 68.3462 127.252C64.8873 124.883 63.4099 122.977 63.0017 120.355C62.6669 118.203 63.0554 116.685 64.9689 112.668C66.9496 108.51 67.4404 106.739 67.7724 102.548C67.9869 99.84 68.2838 98.7722 69.0606 97.9152C69.8706 97.0213 70.5998 96.7187 72.6046 96.4443C75.873 95.9971 77.9542 95.1502 79.665 93.5713C81.149 92.2017 81.77 90.8819 81.8654 88.8951L81.9376 87.3893L81.1084 86.4209C78.1051 82.9136 36.3681 37 36.1833 37C36.1438 37 37.1321 38.2407 38.3794 39.757ZM58.0539 130.984C58.733 129.779 58.3722 128.231 57.2364 127.474C56.1631 126.76 54.4959 127.096 54.4959 128.028C54.4959 128.312 54.653 128.519 55.0066 128.701C55.6019 129.008 55.6453 129.353 55.1768 130.058C54.7023 130.773 54.7406 131.401 55.2848 131.827C56.162 132.515 57.4036 132.137 58.0539 130.984Z" fill="#111111"/>
<path fill-rule="evenodd" clip-rule="evenodd" d="M84.0002 97.2342C82.466 97.7062 80.9744 99.3349 80.5125 101.043C80.2309 102.085 80.3908 103.912 80.8127 104.477C81.4943 105.388 82.1534 105.629 83.9383 105.616C87.4323 105.592 90.47 104.091 90.8232 102.214C91.1128 100.676 89.7786 98.5443 87.941 97.6086C86.9927 97.1258 84.976 96.9342 84.0002 97.2342ZM88.085 100.433C88.6239 99.6666 88.3882 98.8376 87.4718 98.2772C85.7266 97.2098 83.0872 98.093 83.0872 99.7444C83.0872 100.566 84.4634 101.463 85.7252 101.463C86.5648 101.463 87.7139 100.962 88.085 100.433Z" fill="#111111"/>
</svg>
